<svg display="none" viewBox="0 0 100 100">
	<symbol id="close" viewBox="0 0 40 40" xmlns="http://www.w3.org/2000/svg" fill="currentColor">
		<g>
			<path d="M28.4852 11.5146L11.5147 28.4852" stroke="currentColor" stroke-width="2"/>
			<path d="M28.4852 28.4854L11.5147 11.5148" stroke="currentColor" stroke-width="2"/>
		</g>
	</symbol>
	<symbol id="search" viewBox="0 0 24 24" xmlns="http://www.w3.org/2000/svg" fill="currentColor">
		<g>
			<path d="M20.6355 18.876L16.8313 15.0715C17.7559 13.7856 18.2643 12.2489 18.2643 10.6313C18.2643 8.59374 17.4709 6.67752 16.028 5.236C14.5882 3.79511 12.6705 3 10.6315 3C8.59312 3 6.67607 3.79324 5.23501 5.236C3.79395 6.67628 3 8.59311 3 10.6313C3 12.6694 3.79333 14.5856 5.23501 16.0278C6.67607 17.4687 8.5925 18.2638 10.6315 18.2638C12.2487 18.2638 13.7843 17.758 15.0717 16.831L18.8759 20.6354C19.1198 20.8787 19.4371 21 19.7557 21C20.0749 21 20.3929 20.8787 20.6355 20.6354C21.1215 20.1489 21.1215 19.3619 20.6355 18.876ZM6.99526 14.2677C6.02336 13.2959 5.48887 12.0037 5.48887 10.6307C5.48887 9.25757 6.02336 7.96661 6.99526 6.99482C7.96655 6.02302 9.25765 5.48797 10.6315 5.48797C12.0054 5.48797 13.2971 6.02302 14.2684 6.99482C15.2403 7.96661 15.7754 9.25819 15.7754 10.6313C15.7754 12.0044 15.2409 13.2959 14.2684 14.2684C13.2965 15.2401 12.006 15.774 10.6315 15.774C9.25703 15.774 7.9653 15.2389 6.99526 14.2677Z"/>
		</g>
	</symbol>
</svg>
